<?xml version="1.0" standalone="no"?>
<!DOCTYPE svg PUBLIC "-//W3C//DTD SVG 20010904//EN"
 "http://www.w3.org/TR/2001/REC-SVG-20010904/DTD/svg10.dtd">
<svg version="1.0" xmlns="http://www.w3.org/2000/svg"
 width="700.000000pt" height="700.000000pt" viewBox="0 0 700.000000 700.000000"
 preserveAspectRatio="xMidYMid meet">
<metadata>
Created by potrace 1.11, written by Peter Selinger 2001-2013
</metadata>
<g transform="translate(0.000000,700.000000) scale(0.100000,-0.100000)"
fill="#000000" stroke="none">
<path d="M3250 6994 c-19 -2 -80 -9 -135 -15 -781 -81 -1527 -440 -2091 -1003
-589 -590 -948 -1368 -1015 -2200 -14 -184 -7 -532 16 -706 150 -1166 844
-2154 1890 -2691 885 -454 1948 -503 2880 -132 804 320 1459 926 1845 1708
176 358 282 710 337 1120 22 166 25 646 5 810 -100 814 -443 1526 -1007 2090
-557 557 -1244 893 -2050 1001 -104 14 -595 27 -675 18z m904 -1672 c257 -56
430 -145 573 -295 146 -153 230 -349 264 -612 17 -129 6 -413 -21 -537 -94
-443 -371 -747 -772 -847 -132 -33 -272 -41 -780 -41 l-468 0 0 -655 0 -655
-375 0 -375 0 0 1835 0 1836 928 -4 c905 -3 929 -4 1026 -25z"/>
<path d="M2950 4175 l0 -555 415 0 c337 0 430 3 493 16 208 42 328 154 378
353 24 96 16 332 -15 421 -62 180 -195 277 -426 309 -43 6 -242 11 -461 11
l-384 0 0 -555z"/>
</g>
</svg>
